<?xml version="1.0" encoding="UTF-8" standalone="no"?>
<!-- Created with Inkscape (http://www.inkscape.org/) -->

<svg
   xmlns:dc="http://purl.org/dc/elements/1.1/"
   xmlns:cc="http://creativecommons.org/ns#"
   xmlns:rdf="http://www.w3.org/1999/02/22-rdf-syntax-ns#"
   xmlns:svg="http://www.w3.org/2000/svg"
   xmlns="http://www.w3.org/2000/svg"
   xmlns:sodipodi="http://sodipodi.sourceforge.net/DTD/sodipodi-0.dtd"
   xmlns:inkscape="http://www.inkscape.org/namespaces/inkscape"
   width="210mm"
   height="297mm"
   viewBox="0 0 210 297"
   version="1.1"
   id="svg8"
   inkscape:version="0.92.2 (5c3e80d, 2017-08-06)"
   sodipodi:docname="logo.svg"
   inkscape:export-filename="C:\daf21-app\public\Icon-192.png"
   inkscape:export-xdpi="312.19153"
   inkscape:export-ydpi="312.19153">
  <defs
     id="defs2" />
  <sodipodi:namedview
     id="base"
     pagecolor="#ffffff"
     bordercolor="#666666"
     borderopacity="1.0"
     inkscape:pageopacity="0.0"
     inkscape:pageshadow="2"
     inkscape:zoom="2.8284271"
     inkscape:cx="293.28223"
     inkscape:cy="860.25081"
     inkscape:document-units="mm"
     inkscape:current-layer="layer1"
     showgrid="false"
     showguides="false"
     inkscape:window-width="1920"
     inkscape:window-height="1058"
     inkscape:window-x="-8"
     inkscape:window-y="-8"
     inkscape:window-maximized="1" />
  <metadata
     id="metadata5">
    <rdf:RDF>
      <cc:Work
         rdf:about="">
        <dc:format>image/svg+xml</dc:format>
        <dc:type
           rdf:resource="http://purl.org/dc/dcmitype/StillImage" />
        <dc:title></dc:title>
      </cc:Work>
    </rdf:RDF>
  </metadata>
  <g
     inkscape:label="Layer 1"
     inkscape:groupmode="layer"
     id="layer1">
    <g
       id="g989"
       inkscape:export-filename="C:\daf21-app\public\Icon-512.png"
       inkscape:export-xdpi="579.5415"
       inkscape:export-ydpi="579.5415">
      <path
         d="M 76.900911,67.952813 H 54.718649 M 65.80978,56.861682 v 22.182262 m -3.33e-4,-0.122595 A 7.3233643,10.967292 0 0 1 58.486083,67.954058 7.3233643,10.967292 0 0 1 65.809447,56.986766 7.3233643,10.967292 0 0 1 73.132811,67.954058 7.3233643,10.967292 0 0 1 65.809447,78.921349 Z M 76.776739,67.906732 a 10.967292,7.3233643 0 0 1 -10.967292,7.323365 10.967292,7.3233643 0 0 1 -10.967291,-7.323365 10.967292,7.3233643 0 0 1 10.967291,-7.323364 10.967292,7.3233643 0 0 1 10.967292,7.323364 z m 0.0025,0.04724 A 10.969902,10.969902 0 0 1 65.809363,78.923879 10.969902,10.969902 0 0 1 54.839461,67.953977 10.969902,10.969902 0 0 1 65.809363,56.984075 10.969902,10.969902 0 0 1 76.779265,67.953977 Z"
         style="fill:none;stroke:#939497;stroke-width:0.5;stroke-linecap:butt;stroke-linejoin:miter;stroke-miterlimit:4;stroke-dasharray:none;stroke-opacity:1"
         id="path843"
         inkscape:connector-curvature="0" />
      <path
         inkscape:connector-curvature="0"
         id="path856"
         d="m 66.055558,60.841267 v 5.338175 h -1.217496 v 1.522904 h 1.217496 v 0.500229 h -1.195274 v 1.7632 h 1.195274 v 5.00693 A 10.718936,7.0728133 0 0 0 76.527271,67.905951 10.718936,7.0728133 0 0 0 66.055558,60.841267 Z"
         style="opacity:1;fill:#ffffff;fill-opacity:1;stroke:#ffffff;stroke-width:0;stroke-miterlimit:4;stroke-dasharray:none;stroke-opacity:1;paint-order:markers stroke fill" />
      <path
         sodipodi:nodetypes="ccsscsscccssscsssscs"
         inkscape:connector-curvature="0"
         id="path21"
         d="m 65.497163,73.143021 c 3.270078,-0.878595 5.823292,-3.109227 5.820535,-5.08515 -0.0017,-1.193754 -0.881435,-2.703145 -2.11556,-3.629594 -1.068595,-0.802187 -1.648453,-1.066532 -3.83621,-1.748852 l -1.5875,-0.495111 2.394585,0.115262 c 7.495082,0.360773 11.5314,4.957748 7.617057,8.675095 -1.501047,1.425506 -5.171358,2.605093 -8.01671,2.57646 l -1.730347,-0.01741 z m -3.570817,-0.86491 C 65.686049,71.191093 67.624595,68.491114 66.203055,66.32157 65.512542,65.267715 63.668613,64.235629 62.122044,63.61526 61.37891,63.31717 60.8314,63.06592 60.8314,63.06592 c 0,0 4.208981,0.140267 6.155782,1.137347 2.958647,1.515311 3.906463,3.826742 2.17411,5.799783 -0.459165,0.52296 -1.288854,1.182454 -1.843754,1.465543 -1.360071,0.693856 -4.038679,1.301701 -5.655776,1.28344 l -1.322917,-0.01494 z"
         style="opacity:1;fill:#00703e;fill-opacity:1;stroke:#ffffff;stroke-width:1;stroke-miterlimit:4;stroke-dasharray:none;stroke-opacity:1;paint-order:markers stroke fill" />
    </g>
    <path
       sodipodi:nodetypes="ccsscsscccssscsssscs"
       inkscape:connector-curvature="0"
       id="path887"
       d="m 99.360212,73.143021 c 3.270078,-0.878595 5.823298,-3.109227 5.820538,-5.08515 -0.002,-1.193754 -0.88144,-2.703145 -2.11556,-3.629594 -1.0686,-0.802187 -1.64846,-1.066532 -3.836213,-1.748852 l -1.5875,-0.495111 2.394583,0.115262 c 7.49509,0.360773 11.5314,4.957748 7.61706,8.675095 -1.50105,1.425506 -5.17136,2.605093 -8.016711,2.57646 l -1.730348,-0.01741 z m -3.570818,-0.86491 c 3.759704,-1.087018 5.698246,-3.786997 4.276706,-5.956541 -0.690509,-1.053855 -2.534438,-2.085941 -4.081007,-2.70631 -0.743134,-0.29809 -1.290644,-0.54934 -1.290644,-0.54934 0,0 4.208981,0.140267 6.155781,1.137347 2.95865,1.515311 3.90647,3.826742 2.17411,5.799783 -0.45916,0.52296 -1.28885,1.182454 -1.84375,1.465543 -1.360074,0.693856 -4.038682,1.301701 -5.655779,1.28344 l -1.322917,-0.01494 z"
       style="opacity:1;fill:#00703e;fill-opacity:1;stroke:#ffffff;stroke-width:1;stroke-miterlimit:4;stroke-dasharray:none;stroke-opacity:1;paint-order:markers stroke fill"
       inkscape:export-filename="C:\daf21-app\public\Icon-192.png"
       inkscape:export-xdpi="312.19153"
       inkscape:export-ydpi="312.19153" />
  </g>
</svg>
